<svg xmlns="http://www.w3.org/2000/svg" width="1920" height="1080" viewBox="0 0 1920 1080">
  <defs>
    <linearGradient id="sky" x1="0" y1="0" x2="0" y2="1">
      <stop offset="0%" stop-color="#15002f"/>
      <stop offset="100%" stop-color="#080018"/>
    </linearGradient>
    <linearGradient id="fieldA" x1="0" y1="0" x2="1" y2="0">
      <stop offset="0%" stop-color="#004e64"/>
      <stop offset="100%" stop-color="#00b4d8"/>
    </linearGradient>
    <linearGradient id="fieldB" x1="0" y1="0" x2="1" y2="0">
      <stop offset="0%" stop-color="#006d77"/>
      <stop offset="100%" stop-color="#00f5d4"/>
    </linearGradient>
    <filter id="glow">
      <feGaussianBlur stdDeviation="4" result="blur"/>
      <feMerge>
        <feMergeNode in="blur"/>
        <feMergeNode in="SourceGraphic"/>
      </feMerge>
    </filter>
  </defs>

  <rect width="1920" height="1080" fill="url(#sky)"/>

  <path d="M0 760 C360 690 680 820 980 760 C1280 700 1570 805 1920 730 L1920 1080 L0 1080 Z" fill="#041221"/>
  <path d="M0 805 C370 730 710 860 980 805 C1280 745 1580 860 1920 790" fill="none" stroke="url(#fieldA)" stroke-width="7" opacity="0.8" filter="url(#glow)"/>
  <path d="M0 860 C360 790 700 900 980 850 C1260 800 1580 900 1920 840" fill="none" stroke="url(#fieldB)" stroke-width="7" opacity="0.85" filter="url(#glow)"/>
  <path d="M0 915 C350 850 690 955 980 905 C1270 855 1590 960 1920 895" fill="none" stroke="url(#fieldA)" stroke-width="6" opacity="0.75" filter="url(#glow)"/>

  <g opacity="0.85" filter="url(#glow)">
    <line x1="340" y1="860" x2="340" y2="740" stroke="#6fffe9" stroke-width="5"/>
    <line x1="320" y1="790" x2="340" y2="755" stroke="#6fffe9" stroke-width="4"/>
    <line x1="360" y1="790" x2="340" y2="755" stroke="#6fffe9" stroke-width="4"/>

    <line x1="960" y1="830" x2="960" y2="700" stroke="#6fffe9" stroke-width="5"/>
    <line x1="940" y1="765" x2="960" y2="730" stroke="#6fffe9" stroke-width="4"/>
    <line x1="980" y1="765" x2="960" y2="730" stroke="#6fffe9" stroke-width="4"/>

    <line x1="1520" y1="855" x2="1520" y2="735" stroke="#6fffe9" stroke-width="5"/>
    <line x1="1500" y1="790" x2="1520" y2="755" stroke="#6fffe9" stroke-width="4"/>
    <line x1="1540" y1="790" x2="1520" y2="755" stroke="#6fffe9" stroke-width="4"/>
  </g>

  <circle cx="1550" cy="175" r="86" fill="none" stroke="#00f5d4" stroke-width="7" opacity="0.9" filter="url(#glow)"/>
  <text x="92" y="120" fill="#8be9ff" font-family="Arial, sans-serif" font-size="42" opacity="0.72">NEON FARM GRID</text>
</svg>
